<svg width="16" height="21" viewBox="0 0 16 21" fill="none" xmlns="http://www.w3.org/2000/svg">
<g clip-path="url(#clip0_2_432)">
<path d="M15.7567 4.22503L8.61384 18.5107C8.48735 18.7712 8.2753 18.9014 7.97768 18.9014C7.94047 18.9014 7.88467 18.8939 7.81027 18.879C7.64657 18.8418 7.51451 18.7581 7.41406 18.6279C7.31361 18.4977 7.26339 18.3508 7.26339 18.1871V11.7585H0.834819C0.671128 11.7585 0.524179 11.7083 0.393971 11.6078C0.263762 11.5074 0.180057 11.3753 0.142855 11.2116C0.105652 11.0479 0.120533 10.8917 0.187498 10.7429C0.254462 10.5941 0.362349 10.4825 0.511158 10.4081L14.7969 3.26521C14.8936 3.21312 15.0015 3.18708 15.1205 3.18708C15.3214 3.18708 15.4888 3.25777 15.6228 3.39913C15.7344 3.5033 15.8032 3.63165 15.8292 3.78418C15.8553 3.93671 15.8311 4.08366 15.7567 4.22503Z" fill="black"/>
</g>
<defs>
<clipPath id="clip0_2_432">
<rect width="15.72" height="20" fill="white" transform="matrix(1 0 0 -1 0.122925 20.3301)"/>
</clipPath>
</defs>
</svg>
