<svg width="39" height="31" viewBox="0 0 39 31" fill="none" xmlns="http://www.w3.org/2000/svg">
<g clip-path="url(#clip0_2_83)">
<path d="M38.5757 13.1971H36.4328V23.9114H38.5757V30.34H32.1471V28.1971H17.1471V30.34H10.7186V23.9114H12.8614V21.7685H6.43284V23.9114H0.00427246V17.4828H2.14713V6.76854H0.00427246V0.339966H6.43284V2.48282H21.4328V0.339966H27.8614V6.76854H25.7186V8.9114H32.1471V6.76854H38.5757V13.1971ZM34.29 8.9114V11.0543H36.4328V8.9114H34.29ZM23.5757 2.48282V4.62568H25.7186V2.48282H23.5757ZM2.14713 2.48282V4.62568H4.28999V2.48282H2.14713ZM4.28999 21.7685V19.6257H2.14713V21.7685H4.28999ZM25.7186 19.6257H23.5757V21.7685H25.7186V19.6257ZM6.43284 19.6257H21.4328V17.4828H23.5757V6.76854H21.4328V4.62568H6.43284V6.76854H4.28999V17.4828H6.43284V19.6257ZM15.0043 28.1971V26.0543H12.8614V28.1971H15.0043ZM36.4328 28.1971V26.0543H34.29V28.1971H36.4328ZM34.29 23.9114V13.1971H32.1471V11.0543H25.7186V17.4828H27.8614V23.9114H21.4328V21.7685H15.0043V23.9114H17.1471V26.0543H32.1471V23.9114H34.29Z" fill="#2796E2"/>
</g>
<defs>
<clipPath id="clip0_2_83">
<rect width="38.58" height="30" fill="white" transform="matrix(1 0 0 -1 0 30.34)"/>
</clipPath>
</defs>
</svg>
