<svg width="31" height="24" viewBox="0 0 31 24" fill="none" xmlns="http://www.w3.org/2000/svg">
<path d="M9.58444 19.7607L8.74738 20.5978C8.63578 20.7094 8.50743 20.7652 8.36234 20.7652C8.21725 20.7652 8.0889 20.7094 7.97729 20.5978L0.175956 12.7964C0.0643485 12.6848 0.00854492 12.5565 0.00854492 12.4114C0.00854492 12.2663 0.0643485 12.138 0.175956 12.0264L7.97729 4.22501C8.0889 4.11341 8.21725 4.0576 8.36234 4.0576C8.50743 4.0576 8.63578 4.11341 8.74738 4.22501L9.58444 5.06207C9.69604 5.17367 9.75185 5.30202 9.75185 5.44711C9.75185 5.5922 9.69604 5.72055 9.58444 5.83216L3.0052 12.4114L9.58444 18.9906C9.69604 19.1022 9.75185 19.2306 9.75185 19.3757C9.75185 19.5208 9.69604 19.6491 9.58444 19.7607ZM19.4784 1.898L13.234 23.5107C13.1893 23.6558 13.1029 23.7646 12.9745 23.8372C12.8462 23.9097 12.715 23.9237 12.5811 23.879L11.5431 23.5944C11.3981 23.5498 11.2892 23.4633 11.2167 23.3349C11.1441 23.2066 11.1302 23.0699 11.1748 22.9248L17.4193 1.31207C17.4639 1.16698 17.5504 1.05816 17.6787 0.985617C17.8071 0.913073 17.9382 0.89912 18.0722 0.943764L19.1101 1.22836C19.2552 1.273 19.364 1.3595 19.4366 1.48785C19.5091 1.6162 19.5231 1.75292 19.4784 1.898ZM30.4773 12.7964L22.676 20.5978C22.5643 20.7094 22.436 20.7652 22.2909 20.7652C22.1458 20.7652 22.0175 20.7094 21.9059 20.5978L21.0688 19.7607C20.9572 19.6491 20.9014 19.5208 20.9014 19.3757C20.9014 19.2306 20.9572 19.1022 21.0688 18.9906L27.6481 12.4114L21.0688 5.83216C20.9572 5.72055 20.9014 5.5922 20.9014 5.44711C20.9014 5.30202 20.9572 5.17367 21.0688 5.06207L21.9059 4.22501C22.0175 4.11341 22.1458 4.0576 22.2909 4.0576C22.436 4.0576 22.5643 4.11341 22.676 4.22501L30.4773 12.0264C30.5889 12.138 30.6447 12.2663 30.6447 12.4114C30.6447 12.5565 30.5889 12.6848 30.4773 12.7964Z" fill="#ED7256"/>
</svg>
