<svg width="26" height="27" viewBox="0 0 26 27" fill="none" xmlns="http://www.w3.org/2000/svg">
<path d="M15.8901 10.3099C15.8901 10.3099 16.0993 10.5191 16.5179 10.9377C16.9364 11.3562 17.1457 12.157 17.1457 13.34C17.1457 14.523 16.7271 15.5331 15.8901 16.3701C15.053 17.2072 14.043 17.6257 12.86 17.6257C11.6769 17.6257 10.6669 17.2072 9.82982 16.3701C8.99276 15.5331 8.57424 14.523 8.57424 13.34C8.57424 12.157 8.99276 11.1469 9.82982 10.3099C10.6669 9.47281 11.6769 9.05429 12.86 9.05429C14.043 9.05429 15.053 9.47281 15.8901 10.3099ZM17.4052 17.8852C17.4052 17.8852 17.719 17.5713 18.3468 16.9435C18.9746 16.3157 19.2885 15.1146 19.2885 13.34C19.2885 11.5654 18.6607 10.0504 17.4052 8.7948C16.1496 7.53922 14.6345 6.91143 12.86 6.91143C11.0854 6.91143 9.57033 7.53922 8.31475 8.7948C7.05917 10.0504 6.43138 11.5654 6.43138 13.34C6.43138 15.1146 7.05917 16.6296 8.31475 17.8852C9.57033 19.1408 11.0854 19.7686 12.86 19.7686C14.6345 19.7686 16.1496 19.1408 17.4052 17.8852ZM18.9202 7.27973C18.9202 7.27973 19.3387 7.69826 20.1758 8.53531C21.0129 9.37237 21.4314 10.9739 21.4314 13.34C21.4314 15.7061 20.5943 17.7262 18.9202 19.4003C17.2461 21.0744 15.226 21.9114 12.86 21.9114C10.4939 21.9114 8.47379 21.0744 6.79968 19.4003C5.12558 17.7262 4.28852 15.7061 4.28852 13.34C4.28852 10.9739 5.12558 8.95384 6.79968 7.27973C8.47379 5.60563 10.4939 4.76857 12.86 4.76857C15.226 4.76857 17.2461 5.60563 18.9202 7.27973ZM22.7204 17.5002C22.7204 17.5002 22.8627 17.1695 23.1473 16.5082C23.4319 15.847 23.5742 14.7909 23.5742 13.34C23.5742 11.8891 23.2896 10.5024 22.7204 9.17985C22.1512 7.8573 21.3895 6.71891 20.4353 5.76467C19.481 4.81042 18.3427 4.04871 17.0201 3.47951C15.6976 2.91031 14.3108 2.62572 12.86 2.62572C11.4091 2.62572 10.0223 2.91031 8.69979 3.47951C7.37725 4.04871 6.23886 4.81042 5.28462 5.76467C4.33037 6.71891 3.56866 7.8573 2.99946 9.17985C2.43026 10.5024 2.14566 11.8891 2.14566 13.34C2.14566 14.7909 2.43026 16.1776 2.99946 17.5002C3.56866 18.8227 4.33037 19.9611 5.28462 20.9153C6.23886 21.8696 7.37725 22.6313 8.69979 23.2005C10.0223 23.7697 11.4091 24.0543 12.86 24.0543C14.3108 24.0543 15.6976 23.7697 17.0201 23.2005C18.3427 22.6313 19.481 21.8696 20.4353 20.9153C21.3895 19.9611 22.1512 18.8227 22.7204 17.5002ZM23.9928 6.88632C23.9928 6.88632 24.2802 7.37878 24.8549 8.36372C25.4297 9.34865 25.7171 11.0074 25.7171 13.34C25.7171 15.6726 25.1423 17.8238 23.9928 19.7937C22.8432 21.7635 21.2835 23.3233 19.3136 24.4728C17.3438 25.6224 15.1925 26.1971 12.86 26.1971C10.5274 26.1971 8.37613 25.6224 6.40627 24.4728C4.4364 23.3233 2.87669 21.7635 1.72714 19.7937C0.577584 17.8238 0.00280762 15.6726 0.00280762 13.34C0.00280762 11.0074 0.577584 8.85618 1.72714 6.88632C2.87669 4.91645 4.4364 3.35674 6.40627 2.20719C8.37613 1.05764 10.5274 0.482859 12.86 0.482859C15.1925 0.482859 17.3438 1.05764 19.3136 2.20719C21.2835 3.35674 22.8432 4.91645 23.9928 6.88632Z" fill="#9774FA"/>
</svg>
