<svg width="16" height="18" viewBox="0 0 16 18" fill="none" xmlns="http://www.w3.org/2000/svg">
<g opacity="0.9" clip-path="url(#clip0_2_32)">
<path d="M10.7514 15.067C10.4702 13.4531 10.0014 11.7857 9.34516 10.0647H9.32507L9.30498 10.0748C9.19784 10.115 9.05387 10.1702 8.87306 10.2405C8.69226 10.3108 8.35409 10.4749 7.85856 10.7327C7.36302 10.9905 6.90431 11.2651 6.48244 11.5564C6.06056 11.8477 5.62195 12.231 5.16659 12.7065C4.71123 13.1819 4.36637 13.6775 4.13199 14.1931L3.98132 14.0826C5.21347 15.0871 6.61302 15.5893 8.17998 15.5893C9.06391 15.5893 9.92105 15.4152 10.7514 15.067ZM8.89315 8.96987C8.75253 8.64175 8.57507 8.2701 8.36079 7.85492C6.2782 8.47769 4.02485 8.78907 1.60074 8.78907C1.59405 8.83595 1.5907 8.90626 1.5907 9.00001C1.5907 9.83037 1.73802 10.6222 2.03266 11.3756C2.32731 12.1289 2.74248 12.8036 3.2782 13.3996C3.61302 12.8036 4.02652 12.2461 4.51871 11.7271C5.0109 11.2082 5.48802 10.7913 5.95007 10.4766C6.41213 10.1618 6.84907 9.89063 7.2609 9.66296C7.67273 9.43528 8.00588 9.27456 8.26034 9.18081L8.63199 9.05023C8.65878 9.04354 8.7023 9.03182 8.76257 9.01508C8.82284 8.99833 8.86637 8.98327 8.89315 8.96987ZM7.81838 6.84041C7.01481 5.41407 6.19784 4.14845 5.36748 3.04354C4.44338 3.4788 3.65989 4.10157 3.01704 4.91184C2.37418 5.72211 1.94561 6.63282 1.73132 7.64398C3.75364 7.64398 5.78266 7.37613 7.81838 6.84041ZM14.6889 10.0447C13.2827 9.64287 11.9132 9.54577 10.5807 9.75336C11.1632 11.3538 11.5918 12.9241 11.8664 14.4643C12.6097 13.9621 13.2291 13.3276 13.7246 12.5608C14.2202 11.7941 14.5416 10.9554 14.6889 10.0447ZM12.5293 4.05804C11.2905 2.95983 9.8407 2.41072 8.17998 2.41072C7.67106 2.41072 7.15208 2.47434 6.62306 2.60157C7.5003 3.73996 8.32396 5.01898 9.09405 6.43863C9.5561 6.26452 9.99137 6.06195 10.3998 5.83092C10.8083 5.5999 11.1314 5.39398 11.3692 5.21318C11.6069 5.03238 11.8262 4.84153 12.0271 4.64063C12.228 4.43974 12.3535 4.30414 12.4038 4.23383C12.454 4.16351 12.4958 4.10492 12.5293 4.05804ZM14.7693 8.9297C14.7492 7.37613 14.2503 6.00336 13.2726 4.81139L13.2626 4.82144C13.2023 4.90179 13.1387 4.98383 13.0717 5.06753C13.0048 5.15124 12.8591 5.30023 12.6348 5.51452C12.4105 5.7288 12.1727 5.93137 11.9216 6.12222C11.6705 6.31307 11.3357 6.5307 10.9171 6.77512C10.4986 7.01954 10.0583 7.2355 9.59628 7.423C9.76369 7.77791 9.91101 8.09599 10.0382 8.37724C10.0516 8.41072 10.0734 8.46764 10.1035 8.548C10.1337 8.62836 10.1588 8.68528 10.1789 8.71876C10.4199 8.68528 10.6694 8.66184 10.9272 8.64845C11.185 8.63505 11.4311 8.62836 11.6655 8.62836C11.8998 8.62836 12.1309 8.63338 12.3586 8.64342C12.5862 8.65347 12.8005 8.66686 13.0014 8.6836C13.2023 8.70034 13.3915 8.71876 13.5689 8.73885C13.7464 8.75894 13.9071 8.7807 14.0511 8.80414C14.1951 8.82758 14.3173 8.84767 14.4177 8.86441C14.5182 8.88115 14.6019 8.89621 14.6688 8.90961L14.7693 8.9297ZM14.8597 5.1278C14.8597 5.1278 15.0321 5.42328 15.377 6.01424C15.7218 6.6052 15.8943 7.60046 15.8943 9.00001C15.8943 10.3996 15.5494 11.6903 14.8597 12.8722C14.1699 14.0541 13.2341 14.99 12.0522 15.6797C10.8703 16.3694 9.57954 16.7143 8.17998 16.7143C6.78043 16.7143 5.48969 16.3694 4.30777 15.6797C3.12585 14.99 2.19003 14.0541 1.5003 12.8722C0.810564 11.6903 0.465698 10.3996 0.465698 9.00001C0.465698 7.60046 0.810564 6.30972 1.5003 5.1278C2.19003 3.94588 3.12585 3.01005 4.30777 2.32032C5.48969 1.63059 6.78043 1.28572 8.17998 1.28572C9.57954 1.28572 10.8703 1.63059 12.0522 2.32032C13.2341 3.01005 14.1699 3.94588 14.8597 5.1278Z" fill="black"/>
</g>
<defs>
<clipPath id="clip0_2_32">
<rect width="15.44" height="18" fill="white" transform="matrix(1 0 0 -1 0.459961 18)"/>
</clipPath>
</defs>
</svg>
