<svg width="16" height="16" viewBox="0 0 16 16" fill="none" xmlns="http://www.w3.org/2000/svg">
<path d="M3.86783 1.32031C3.86783 1.32031 4.16331 1.14787 4.75427 0.803008C5.34523 0.458142 6.34049 0.285709 7.74004 0.285709C9.1396 0.285709 10.4303 0.630575 11.6123 1.32031C12.7942 2.01004 13.73 2.94587 14.4197 4.12778C15.1095 5.3097 15.4543 6.60044 15.4543 7.99999C15.4543 9.6808 14.9638 11.1925 13.9828 12.5352C13.0018 13.8778 11.7345 14.8069 10.1809 15.3225C10.0001 15.356 9.86616 15.3326 9.77911 15.2522C9.69205 15.1719 9.64852 15.0714 9.64852 14.9509C9.64852 14.9308 9.6502 14.6747 9.65355 14.1825C9.65689 13.6903 9.65857 13.24 9.65857 12.8315C9.65857 12.1819 9.48446 11.7065 9.13625 11.4051C9.51794 11.365 9.86114 11.3047 10.1658 11.2243C10.4705 11.144 10.7852 11.0134 11.11 10.8326C11.4348 10.6518 11.706 10.4291 11.9236 10.1646C12.1413 9.90011 12.3187 9.54854 12.456 9.10993C12.5933 8.67131 12.6619 8.16741 12.6619 7.59821C12.6619 6.80133 12.3974 6.1116 11.8684 5.52901C12.1162 4.91964 12.0894 4.2366 11.788 3.47991C11.6005 3.41964 11.3293 3.45647 10.9744 3.5904C10.6195 3.72433 10.3115 3.87165 10.0503 4.03236L9.66861 4.27343C9.04585 4.09933 8.40299 4.01227 7.74004 4.01227C7.0771 4.01227 6.43424 4.09933 5.81147 4.27343C5.70433 4.19977 5.56203 4.10937 5.38457 4.00223C5.20712 3.89508 4.92754 3.76618 4.54585 3.61551C4.16415 3.46484 3.87955 3.41964 3.69205 3.47991C3.39071 4.2366 3.36393 4.91964 3.61169 5.52901C3.08268 6.1116 2.81817 6.80133 2.81817 7.59821C2.81817 8.16741 2.88681 8.66964 3.02408 9.10491C3.16136 9.54017 3.33714 9.89174 3.55143 10.1596C3.76571 10.4275 4.03524 10.6518 4.36002 10.8326C4.6848 11.0134 4.99953 11.144 5.30422 11.2243C5.6089 11.3047 5.9521 11.365 6.33379 11.4051C6.07263 11.6462 5.90857 11.9911 5.84161 12.4397C5.70098 12.5067 5.55031 12.5569 5.3896 12.5904C5.22888 12.6239 5.03803 12.6406 4.81705 12.6406C4.59607 12.6406 4.37676 12.5686 4.15913 12.4247C3.94149 12.2807 3.75567 12.0714 3.60165 11.7969C3.47442 11.5826 3.31203 11.4085 3.11448 11.2745C2.91694 11.1406 2.7512 11.0603 2.61727 11.0335L2.41638 11.0033C2.27576 11.0033 2.17866 11.0184 2.12509 11.0485C2.07152 11.0787 2.05477 11.1172 2.07486 11.1641C2.09495 11.2109 2.12509 11.2578 2.16527 11.3047C2.20544 11.3516 2.24897 11.3917 2.29585 11.4252L2.36616 11.4754C2.51348 11.5424 2.65913 11.6696 2.8031 11.8571C2.94707 12.0446 3.05254 12.2154 3.11951 12.3694L3.21995 12.6004C3.30701 12.8549 3.45433 13.0608 3.66192 13.2182C3.86951 13.3756 4.09384 13.476 4.33491 13.5195C4.57598 13.5631 4.80868 13.5865 5.03301 13.5898C5.25734 13.5932 5.44317 13.5815 5.59049 13.5547L5.82152 13.5145C5.82152 13.769 5.82319 14.0653 5.82654 14.4035C5.82989 14.7416 5.83156 14.9241 5.83156 14.9509C5.83156 15.0714 5.78803 15.1719 5.70098 15.2522C5.61393 15.3326 5.48 15.356 5.29919 15.3225C3.74562 14.8069 2.47832 13.8778 1.4973 12.5352C0.51627 11.1925 0.0257568 9.6808 0.0257568 7.99999C0.0257568 6.60044 0.370623 5.3097 1.06036 4.12778C1.75009 2.94587 2.68591 2.01004 3.86783 1.32031ZM2.94875 11.365C2.96884 11.3181 2.9454 11.2779 2.87844 11.2444C2.81147 11.2243 2.76794 11.231 2.74785 11.2645C2.72777 11.3114 2.7512 11.3516 2.81817 11.385C2.87844 11.4252 2.92196 11.4185 2.94875 11.365ZM3.26013 11.7065C3.30701 11.673 3.30031 11.6194 3.24004 11.5458C3.17308 11.4855 3.11951 11.4754 3.07933 11.5156C3.03245 11.5491 3.03915 11.6027 3.09942 11.6763C3.16638 11.7433 3.21995 11.7533 3.26013 11.7065ZM3.56147 12.1585C3.62174 12.1116 3.62174 12.048 3.56147 11.9676C3.5079 11.8806 3.45098 11.8605 3.39071 11.9074C3.33044 11.9408 3.33044 12.0011 3.39071 12.0882C3.45098 12.1752 3.5079 12.1987 3.56147 12.1585ZM3.98335 12.5804C4.03692 12.5268 4.02352 12.4632 3.94317 12.3895C3.86281 12.3091 3.79585 12.2991 3.74227 12.3594C3.68201 12.4129 3.6954 12.4766 3.78245 12.5502C3.86281 12.6306 3.92977 12.6406 3.98335 12.5804ZM4.55589 12.8315C4.57598 12.7578 4.53245 12.7042 4.42531 12.6708C4.32486 12.644 4.26125 12.6674 4.23446 12.7411C4.20768 12.8147 4.2512 12.865 4.36504 12.8917C4.46549 12.9319 4.52911 12.9118 4.55589 12.8315ZM5.1887 12.8817C5.1887 12.7946 5.13178 12.7578 5.01794 12.7712C4.9108 12.7712 4.85723 12.808 4.85723 12.8817C4.85723 12.9687 4.91415 13.0056 5.02799 12.9922C5.13513 12.9922 5.1887 12.9554 5.1887 12.8817ZM5.77129 12.7812C5.7579 12.7076 5.69763 12.6775 5.59049 12.6908C5.48335 12.7109 5.43647 12.7612 5.44986 12.8415C5.46326 12.9219 5.52352 12.9487 5.63067 12.9219C5.73781 12.8951 5.78469 12.8482 5.77129 12.7812Z" fill="black"/>
</svg>
