<svg width="11" height="11" viewBox="0 0 11 11" fill="none" xmlns="http://www.w3.org/2000/svg">
<path d="M11 8.6875C11 8.82812 10.974 9.01172 10.9219 9.23828C10.8698 9.46484 10.8151 9.64323 10.7578 9.77344C10.6484 10.0339 10.3307 10.3099 9.80469 10.6016C9.3151 10.8672 8.83073 11 8.35156 11C8.21094 11 8.07292 10.9909 7.9375 10.9727C7.80208 10.9544 7.65234 10.9219 7.48828 10.875C7.32422 10.8281 7.20182 10.7904 7.12109 10.7617C7.04036 10.7331 6.89583 10.6797 6.6875 10.6016C6.47917 10.5234 6.35156 10.4766 6.30469 10.4609C5.79427 10.2786 5.33854 10.0625 4.9375 9.8125C4.27604 9.40104 3.58854 8.83854 2.875 8.125C2.16146 7.41146 1.59896 6.72396 1.1875 6.0625C0.9375 5.66146 0.721354 5.20573 0.539062 4.69531C0.523438 4.64844 0.476562 4.52083 0.398438 4.3125C0.320312 4.10417 0.266927 3.95964 0.238281 3.87891C0.209635 3.79818 0.171875 3.67578 0.125 3.51172C0.078125 3.34766 0.0455729 3.19792 0.0273438 3.0625C0.00911458 2.92708 0 2.78906 0 2.64844C0 2.16927 0.132812 1.6849 0.398438 1.19531C0.690104 0.669271 0.966146 0.351562 1.22656 0.242188C1.35677 0.184896 1.53516 0.130208 1.76172 0.078125C1.98828 0.026042 2.17188 0 2.3125 0C2.38542 0 2.4401 0.0078125 2.47656 0.0234375C2.57031 0.0546875 2.70833 0.252604 2.89062 0.617188C2.94792 0.716146 3.02604 0.856771 3.125 1.03906C3.22396 1.22135 3.3151 1.38672 3.39844 1.53516C3.48177 1.68359 3.5625 1.82292 3.64062 1.95312C3.65625 1.97396 3.70182 2.03906 3.77734 2.14844C3.85286 2.25781 3.90885 2.35026 3.94531 2.42578C3.98177 2.5013 4 2.57552 4 2.64844C4 2.7526 3.92578 2.88281 3.77734 3.03906C3.62891 3.19531 3.46745 3.33854 3.29297 3.46875C3.11849 3.59896 2.95703 3.73698 2.80859 3.88281C2.66016 4.02865 2.58594 4.14844 2.58594 4.24219C2.58594 4.28906 2.59896 4.34766 2.625 4.41797C2.65104 4.48828 2.67318 4.54167 2.69141 4.57812C2.70964 4.61458 2.74609 4.67708 2.80078 4.76562C2.85547 4.85417 2.88542 4.90365 2.89062 4.91406C3.28646 5.6276 3.73958 6.23958 4.25 6.75C4.76042 7.26042 5.3724 7.71354 6.08594 8.10938C6.09635 8.11458 6.14583 8.14453 6.23438 8.19922C6.32292 8.25391 6.38542 8.29036 6.42188 8.30859C6.45833 8.32682 6.51172 8.34896 6.58203 8.375C6.65234 8.40104 6.71094 8.41406 6.75781 8.41406C6.85156 8.41406 6.97135 8.33984 7.11719 8.19141C7.26302 8.04297 7.40104 7.88151 7.53125 7.70703C7.66146 7.53255 7.80469 7.37109 7.96094 7.22266C8.11719 7.07422 8.2474 7 8.35156 7C8.42448 7 8.4987 7.01823 8.57422 7.05469C8.64974 7.09115 8.74219 7.14714 8.85156 7.22266C8.96094 7.29818 9.02604 7.34375 9.04688 7.35938C9.17708 7.4375 9.31641 7.51823 9.46484 7.60156C9.61328 7.6849 9.77865 7.77604 9.96094 7.875C10.1432 7.97396 10.2839 8.05208 10.3828 8.10938C10.7474 8.29167 10.9453 8.42969 10.9766 8.52344C10.9922 8.5599 11 8.61458 11 8.6875Z" fill="black"/>
</svg>
