<svg width="28" height="31" viewBox="0 0 28 31" fill="none" xmlns="http://www.w3.org/2000/svg">
<path d="M2.20438 27.8869H7.02581V23.0655H2.20438V27.8869ZM8.09724 27.8869H13.4544V23.0655H8.09724V27.8869ZM2.20438 21.9941H7.02581V16.6369H2.20438V21.9941ZM8.09724 21.9941H13.4544V16.6369H8.09724V21.9941ZM2.20438 15.5655H7.02581V10.7441H2.20438V15.5655ZM14.5258 27.8869H19.883V23.0655H14.5258V27.8869ZM8.09724 15.5655H13.4544V10.7441H8.09724V15.5655ZM20.9544 27.8869H25.7758V23.0655H20.9544V27.8869ZM14.5258 21.9941H19.883V16.6369H14.5258V21.9941ZM8.63295 7.52979V2.70836C8.63295 2.56327 8.57994 2.43771 8.47391 2.33168C8.36788 2.22566 8.24233 2.17264 8.09724 2.17264H7.02581C6.88072 2.17264 6.75516 2.22566 6.64913 2.33168C6.54311 2.43771 6.49009 2.56327 6.49009 2.70836V7.52979C6.49009 7.67488 6.54311 7.80043 6.64913 7.90646C6.75516 8.01249 6.88072 8.0655 7.02581 8.0655H8.09724C8.24233 8.0655 8.36788 8.01249 8.47391 7.90646C8.57994 7.80043 8.63295 7.67488 8.63295 7.52979ZM20.9544 21.9941H25.7758V16.6369H20.9544V21.9941ZM14.5258 15.5655H19.883V10.7441H14.5258V15.5655ZM20.9544 15.5655H25.7758V10.7441H20.9544V15.5655ZM21.4901 7.52979V2.70836C21.4901 2.56327 21.4371 2.43771 21.3311 2.33168C21.225 2.22566 21.0995 2.17264 20.9544 2.17264H19.883C19.7379 2.17264 19.6123 2.22566 19.5063 2.33168C19.4003 2.43771 19.3472 2.56327 19.3472 2.70836V7.52979C19.3472 7.67488 19.4003 7.80043 19.5063 7.90646C19.6123 8.01249 19.7379 8.0655 19.883 8.0655H20.9544C21.0995 8.0655 21.225 8.01249 21.3311 7.90646C21.4371 7.80043 21.4901 7.67488 21.4901 7.52979ZM27.9187 6.45836V27.8869C27.9187 28.4673 27.7066 28.9695 27.2825 29.3936C26.8584 29.8177 26.3562 30.0298 25.7758 30.0298H2.20438C1.62402 30.0298 1.12179 29.8177 0.697684 29.3936C0.273577 28.9695 0.0615234 28.4673 0.0615234 27.8869V6.45836C0.0615234 5.878 0.273577 5.37577 0.697684 4.95166C1.12179 4.52755 1.62402 4.3155 2.20438 4.3155H4.34724V2.70836C4.34724 1.97175 4.60951 1.34117 5.13407 0.816616C5.65862 0.292063 6.2892 0.0297852 7.02581 0.0297852H8.09724C8.83384 0.0297852 9.46443 0.292063 9.98898 0.816616C10.5135 1.34117 10.7758 1.97175 10.7758 2.70836V4.3155H17.2044V2.70836C17.2044 1.97175 17.4667 1.34117 17.9912 0.816616C18.5158 0.292063 19.1463 0.0297852 19.883 0.0297852H20.9544C21.691 0.0297852 22.3216 0.292063 22.8461 0.816616C23.3707 1.34117 23.633 1.97175 23.633 2.70836V4.3155H25.7758C26.3562 4.3155 26.8584 4.52755 27.2825 4.95166C27.7066 5.37577 27.9187 5.878 27.9187 6.45836Z" fill="#7AF8E4"/>
</svg>
