<svg width="26" height="31" viewBox="0 0 26 31" fill="none" xmlns="http://www.w3.org/2000/svg">
<path d="M25.3215 26.8155C25.4777 26.8155 25.6061 26.8657 25.7065 26.9662C25.8069 27.0666 25.8572 27.195 25.8572 27.3512V29.4941C25.8572 29.6503 25.8069 29.7787 25.7065 29.8791C25.6061 29.9796 25.4777 30.0298 25.3215 30.0298H0.678598C0.522348 30.0298 0.393999 29.9796 0.293553 29.8791C0.193107 29.7787 0.142883 29.6503 0.142883 29.4941V27.3512C0.142883 27.195 0.193107 27.0666 0.293553 26.9662C0.393999 26.8657 0.522348 26.8155 0.678598 26.8155H25.3215ZM2.31922 25.7441C2.3527 25.1302 2.44199 24.5331 2.58708 23.9528C2.73217 23.3724 2.89958 22.8423 3.08931 22.3624C3.27904 21.8825 3.53574 21.397 3.8594 20.9059C4.18306 20.4148 4.48161 19.9907 4.75505 19.6336C5.02849 19.2764 5.38842 18.8886 5.83485 18.4701C6.28128 18.0515 6.64958 17.7167 6.93976 17.4656C7.22994 17.2145 7.62335 16.9076 8.12 16.5449C8.61666 16.1821 8.98775 15.9171 9.23328 15.7497C9.47882 15.5822 9.84154 15.3423 10.3215 15.0298C9.84154 14.7173 9.47882 14.4773 9.23328 14.3099C8.98775 14.1425 8.61666 13.8774 8.12 13.5147C7.62335 13.152 7.22994 12.8451 6.93976 12.594C6.64958 12.3428 6.28128 12.008 5.83485 11.5895C5.38842 11.171 5.02849 10.7831 4.75505 10.426C4.48161 10.0688 4.18306 9.64474 3.8594 9.15367C3.53574 8.6626 3.27904 8.17711 3.08931 7.6972C2.89958 7.21729 2.73217 6.68715 2.58708 6.10679C2.44199 5.52644 2.3527 4.92934 2.31922 4.3155H23.6808C23.6473 4.92934 23.5581 5.52644 23.413 6.10679C23.2679 6.68715 23.1005 7.21729 22.9107 7.6972C22.721 8.17711 22.4643 8.6626 22.1406 9.15367C21.817 9.64474 21.5184 10.0688 21.245 10.426C20.9716 10.7831 20.6116 11.171 20.1652 11.5895C19.7188 12.008 19.3505 12.3428 19.0603 12.594C18.7701 12.8451 18.3767 13.152 17.88 13.5147C17.3834 13.8774 17.0123 14.1425 16.7668 14.3099C16.5212 14.4773 16.1585 14.7173 15.6786 15.0298C16.1585 15.3423 16.5212 15.5822 16.7668 15.7497C17.0123 15.9171 17.3834 16.1821 17.88 16.5449C18.3767 16.9076 18.7701 17.2145 19.0603 17.4656C19.3505 17.7167 19.7188 18.0515 20.1652 18.4701C20.6116 18.8886 20.9716 19.2764 21.245 19.6336C21.5184 19.9907 21.817 20.4148 22.1406 20.9059C22.4643 21.397 22.721 21.8825 22.9107 22.3624C23.1005 22.8423 23.2679 23.3724 23.413 23.9528C23.5581 24.5331 23.6473 25.1302 23.6808 25.7441H2.31922ZM25.3215 0.0297852C25.4777 0.0297852 25.6061 0.0800095 25.7065 0.180456C25.8069 0.280903 25.8572 0.40925 25.8572 0.5655V2.70836C25.8572 2.86461 25.8069 2.99296 25.7065 3.0934C25.6061 3.19385 25.4777 3.24407 25.3215 3.24407H0.678598C0.522348 3.24407 0.393999 3.19385 0.293553 3.0934C0.193107 2.99296 0.142883 2.86461 0.142883 2.70836V0.5655C0.142883 0.40925 0.193107 0.280903 0.293553 0.180456C0.393999 0.0800095 0.522348 0.0297852 0.678598 0.0297852H25.3215Z" fill="#7AF8E4"/>
</svg>
