<svg width="26" height="31" viewBox="0 0 26 31" fill="none" xmlns="http://www.w3.org/2000/svg">
<path d="M17.2857 8.60122V0.699429C17.5313 0.855679 17.7322 1.01193 17.8884 1.16818L24.7188 7.99854C24.875 8.15479 25.0313 8.35568 25.1875 8.60122H17.2857ZM15.1429 9.13693C15.1429 9.58336 15.2991 9.96282 15.6116 10.2753C15.9241 10.5878 16.3036 10.7441 16.75 10.7441H25.8572V28.4226C25.8572 28.8691 25.7009 29.2485 25.3884 29.561C25.0759 29.8735 24.6965 30.0298 24.25 30.0298H1.75003C1.3036 30.0298 0.924133 29.8735 0.611633 29.561C0.299133 29.2485 0.142883 28.8691 0.142883 28.4226V1.63693C0.142883 1.1905 0.299133 0.811035 0.611633 0.498535C0.924133 0.186037 1.3036 0.0297852 1.75003 0.0297852H15.1429V9.13693Z" fill="#7AF8E4"/>
</svg>
