<svg width="13" height="23" viewBox="0 0 13 23" fill="none" xmlns="http://www.w3.org/2000/svg">
<path d="M12.7751 2.06934C12.9239 2.21815 12.9983 2.38928 12.9983 2.58273C12.9983 2.77618 12.9239 2.94731 12.7751 3.09612L4.00274 11.8684L12.7751 20.6408C12.9239 20.7896 12.9983 20.9607 12.9983 21.1542C12.9983 21.3476 12.9239 21.5187 12.7751 21.6676L11.659 22.7836C11.5102 22.9324 11.339 23.0068 11.1456 23.0068C10.9521 23.0068 10.781 22.9324 10.6322 22.7836L0.230416 12.3818C0.0816069 12.233 0.00720215 12.0619 0.00720215 11.8684C0.00720215 11.675 0.0816069 11.5039 0.230416 11.3551L10.6322 0.953264C10.781 0.804455 10.9521 0.730049 11.1456 0.730049C11.339 0.730049 11.5102 0.804455 11.659 0.953264L12.7751 2.06934Z" fill="black"/>
</svg>
