<svg width="13" height="23" viewBox="0 0 13 23" fill="none" xmlns="http://www.w3.org/2000/svg">
<path d="M12.775 11.3551C12.9238 11.5039 12.9982 11.675 12.9982 11.8684C12.9982 12.0619 12.9238 12.233 12.775 12.3818L2.37321 22.7836C2.2244 22.9324 2.05327 23.0068 1.85982 23.0068C1.66637 23.0068 1.49524 22.9324 1.34643 22.7836L0.230355 21.6676C0.0815459 21.5187 0.00714111 21.3476 0.00714111 21.1542C0.00714111 20.9607 0.0815459 20.7896 0.230355 20.6408L9.00268 11.8684L0.230355 3.09612C0.0815459 2.94731 0.00714111 2.77618 0.00714111 2.58273C0.00714111 2.38928 0.0815459 2.21815 0.230355 2.06934L1.34643 0.953264C1.49524 0.804455 1.66637 0.730049 1.85982 0.730049C2.05327 0.730049 2.2244 0.804455 2.37321 0.953264L12.775 11.3551Z" fill="black"/>
</svg>
